<svg width="36" height="35" viewBox="0 0 36 35" fill="none" xmlns="http://www.w3.org/2000/svg">
<path d="M11.8923 13.125C11.0868 13.125 10.4339 13.7779 10.4339 14.5833C10.4339 15.3887 11.0868 16.0416 11.8923 16.0416H23.5589C24.3643 16.0416 25.0173 15.3887 25.0173 14.5833C25.0173 13.7779 24.3643 13.125 23.5589 13.125H11.8923Z" fill="black"/>
<path d="M11.8923 18.9583C11.0868 18.9583 10.4339 19.6112 10.4339 20.4166C10.4339 21.2221 11.0868 21.875 11.8923 21.875H17.7256C18.531 21.875 19.1839 21.2221 19.1839 20.4166C19.1839 19.6112 18.531 18.9583 17.7256 18.9583H11.8923Z" fill="black"/>
<path d="M11.8923 24.7916C11.0868 24.7916 10.4339 25.4446 10.4339 26.25C10.4339 27.0554 11.0868 27.7083 11.8923 27.7083H23.5589C24.3643 27.7083 25.0173 27.0554 25.0173 26.25C25.0173 25.4446 24.3643 24.7916 23.5589 24.7916H11.8923Z" fill="black"/>
<path fill-rule="evenodd" clip-rule="evenodd" d="M30.6738 7.49229C30.5564 7.20826 30.3841 6.9502 30.1668 6.73295L25.5766 2.14276C25.1394 1.70505 24.5463 1.45886 23.9277 1.45831H6.93392C6.31508 1.45831 5.72159 1.70415 5.284 2.14173C4.84642 2.57932 4.60059 3.17281 4.60059 3.79165V31.2083C4.60059 31.5147 4.66094 31.8182 4.7782 32.1012C4.89546 32.3843 5.06733 32.6416 5.284 32.8582C5.50067 33.0749 5.75789 33.2468 6.04099 33.364C6.32409 33.4813 6.62751 33.5416 6.93392 33.5416H28.5173C28.8237 33.5416 29.1271 33.4813 29.4102 33.364C29.6933 33.2468 29.9505 33.0749 30.1672 32.8582C30.3838 32.6416 30.5557 32.3843 30.673 32.1012C30.7902 31.8181 30.8506 31.5147 30.8506 31.2083V8.38585L29.3923 8.3854L30.8506 8.38897L30.8506 8.38585C30.8509 8.07928 30.7909 7.77564 30.6738 7.49229ZM22.1006 8.02081C22.1006 9.22894 23.08 10.2083 24.2881 10.2083H27.9339V30.625H7.51725V4.37498H22.1006V8.02081ZM26.6007 7.29165L25.0173 5.70821V7.29165H26.6007Z" fill="black"/>
</svg>
