<svg width="36" height="35" viewBox="0 0 36 35" fill="none" xmlns="http://www.w3.org/2000/svg">
<path fill-rule="evenodd" clip-rule="evenodd" d="M17.9998 3.90503C16.6674 3.90503 15.3605 4.27012 14.2209 4.96065L6.92926 9.3794C5.85701 10.0292 4.97039 10.9445 4.35507 12.0368C3.73974 13.1292 3.41648 14.3618 3.4165 15.6156V24.7914C3.4165 26.7253 4.18473 28.5799 5.55218 29.9474C6.91963 31.3148 8.7743 32.0831 10.7082 32.0831H25.2915C27.2254 32.0831 29.08 31.3148 30.4475 29.9474C31.8149 28.5799 32.5832 26.7253 32.5832 24.7914V15.6141C32.5829 14.3606 32.2595 13.1281 31.6442 12.036C31.0288 10.944 30.1424 10.029 29.0704 9.37941L21.7788 4.96066C20.6392 4.27013 19.3323 3.90503 17.9998 3.90503ZM15.7325 7.45506C16.4162 7.04075 17.2004 6.8217 17.9998 6.8217C18.7993 6.8217 19.5834 7.04075 20.2672 7.45506L27.5588 11.8738C28.202 12.2636 28.7339 12.8126 29.1031 13.4678C29.4722 14.1229 29.6663 14.8621 29.6665 15.6141V24.7914C29.6665 25.9517 29.2056 27.0645 28.3851 27.885C27.5646 28.7055 26.4518 29.1664 25.2915 29.1664H23.8332V24.7914C23.8332 23.2443 23.2186 21.7606 22.1246 20.6666C21.0307 19.5727 19.5469 18.9581 17.9998 18.9581C16.4527 18.9581 14.969 19.5727 13.875 20.6666C12.7811 21.7606 12.1665 23.2443 12.1665 24.7914V29.1664H10.7082C9.54785 29.1664 8.43505 28.7055 7.61458 27.885C6.79411 27.0645 6.33317 25.9517 6.33317 24.7914V15.6156C6.33315 14.8633 6.52711 14.1237 6.89631 13.4683C7.2655 12.8128 7.79747 12.2637 8.44083 11.8738L15.7325 7.45506ZM20.0622 22.729C20.6092 23.276 20.9165 24.0179 20.9165 24.7914V29.1664H15.0832V24.7914C15.0832 24.0179 15.3905 23.276 15.9374 22.729C16.4844 22.182 17.2263 21.8747 17.9998 21.8747C18.7734 21.8747 19.5152 22.182 20.0622 22.729Z" fill="#121212"/>
</svg>
