<svg width="36" height="35" viewBox="0 0 36 35" fill="none" xmlns="http://www.w3.org/2000/svg">
<path fill-rule="evenodd" clip-rule="evenodd" d="M18.0002 4.375C16.0663 4.375 14.2116 5.14323 12.8442 6.51068C11.4767 7.87813 10.7085 9.7328 10.7085 11.6667C10.7085 13.6005 11.4767 15.4552 12.8442 16.8227C12.9404 16.9188 13.039 17.0121 13.1398 17.1023C11.8908 17.6747 10.7408 18.4685 9.75058 19.4588C7.56266 21.6467 6.3335 24.6141 6.3335 27.7083V29.1667C6.3335 29.9721 6.98641 30.625 7.79183 30.625C8.59724 30.625 9.25016 29.9721 9.25016 29.1667V27.7083C9.25016 25.3877 10.172 23.1621 11.813 21.5212C13.4539 19.8802 15.6795 18.9583 18.0002 18.9583C20.3208 18.9583 22.5464 19.8802 24.1873 21.5212C25.8283 23.1621 26.7502 25.3877 26.7502 27.7083V29.1667C26.7502 29.9721 27.4031 30.625 28.2085 30.625C29.0139 30.625 29.6668 29.9721 29.6668 29.1667V27.7083C29.6668 24.6141 28.4377 21.6467 26.2497 19.4588C25.2595 18.4685 24.1096 17.6747 22.8605 17.1023C22.9614 17.0121 23.06 16.9188 23.1561 16.8227C24.5236 15.4552 25.2918 13.6005 25.2918 11.6667C25.2918 9.7328 24.5236 7.87813 23.1561 6.51068C21.7887 5.14323 19.934 4.375 18.0002 4.375ZM14.9066 8.57307C15.727 7.7526 16.8398 7.29167 18.0002 7.29167C19.1605 7.29167 20.2733 7.7526 21.0938 8.57307C21.9142 9.39355 22.3752 10.5063 22.3752 11.6667C22.3752 12.827 21.9142 13.9398 21.0938 14.7603C20.2733 15.5807 19.1605 16.0417 18.0002 16.0417C16.8398 16.0417 15.727 15.5807 14.9066 14.7603C14.0861 13.9398 13.6252 12.827 13.6252 11.6667C13.6252 10.5063 14.0861 9.39355 14.9066 8.57307Z" fill="#121212"/>
</svg>
