<svg width="30" height="30" viewBox="0 0 30 30" fill="none" xmlns="http://www.w3.org/2000/svg">
<path d="M21.2501 26.25C21.5816 26.25 21.8995 26.1183 22.1339 25.8839C22.3684 25.6495 22.5001 25.3315 22.5001 25V18.3125C22.5001 17.7413 22.8951 17.2575 23.4088 17.0113C24.4725 16.5038 25.3228 15.6369 25.8096 14.5636C26.2964 13.4903 26.3884 12.2795 26.0693 11.145C25.7503 10.0104 25.0408 9.02501 24.0659 8.36269C23.0911 7.70036 21.9136 7.40368 20.7413 7.52501C20.2585 6.40276 19.4574 5.44662 18.437 4.7748C17.4166 4.10298 16.2217 3.74493 15.0001 3.74493C13.7784 3.74493 12.5835 4.10298 11.5631 4.7748C10.5427 5.44662 9.7416 6.40276 9.25881 7.52501C8.08704 7.40453 6.91035 7.70163 5.93622 8.36393C4.96209 9.02622 4.25307 10.0112 3.93416 11.1451C3.61526 12.2791 3.70695 13.4892 4.19306 14.5622C4.67918 15.6352 5.52851 16.502 6.59131 17.01C7.10506 17.2575 7.50006 17.7413 7.50006 18.3113V25C7.50006 25.3315 7.63175 25.6495 7.86617 25.8839C8.10059 26.1183 8.41854 26.25 8.75006 26.25H21.2501Z" stroke="white" stroke-width="1.25" stroke-linecap="round" stroke-linejoin="round"/>
<path d="M7.5 21.25H22.5" stroke="white" stroke-width="1.25" stroke-linecap="round" stroke-linejoin="round"/>
</svg>
