<svg width="30" height="30" viewBox="0 0 30 30" fill="none" xmlns="http://www.w3.org/2000/svg">
<path d="M8.75 2.5C7.75544 2.5 6.80161 2.89509 6.09835 3.59835C5.39509 4.30161 5 5.25544 5 6.25V23.75C5 24.7446 5.39509 25.6984 6.09835 26.4017C6.80161 27.1049 7.75544 27.5 8.75 27.5H21.25C22.2446 27.5 23.1984 27.1049 23.9016 26.4017C24.6049 25.6984 25 24.7446 25 23.75V22.5C25 21.8096 24.4404 21.25 23.75 21.25C23.0596 21.25 22.5 21.8096 22.5 22.5V23.75C22.5 24.0815 22.3683 24.3995 22.1339 24.6339C21.8995 24.8683 21.5815 25 21.25 25H8.75C8.41848 25 8.10054 24.8683 7.86612 24.6339C7.6317 24.3995 7.5 24.0815 7.5 23.75V6.25C7.5 5.91848 7.6317 5.60054 7.86612 5.36612C8.10054 5.1317 8.41848 5 8.75 5H21.25C21.5815 5 21.8995 5.1317 22.1339 5.36612C22.3683 5.60054 22.5 5.91848 22.5 6.25V7.5C22.5 8.19036 23.0596 8.75 23.75 8.75C24.4404 8.75 25 8.19036 25 7.5V6.25C25 5.25544 24.6049 4.30161 23.9016 3.59835C23.1984 2.89509 22.2446 2.5 21.25 2.5H8.75Z" fill="#FF3B30"/>
<path d="M20.8839 10.3661C20.3957 9.87796 19.6043 9.87796 19.1161 10.3661C18.628 10.8543 18.628 11.6457 19.1161 12.1339L20.7322 13.75H15C14.3096 13.75 13.75 14.3096 13.75 15C13.75 15.6904 14.3096 16.25 15 16.25H20.7322L19.1161 17.8661C18.628 18.3543 18.628 19.1457 19.1161 19.6339C19.6043 20.122 20.3957 20.122 20.8839 19.6339L24.6339 15.8839C25.122 15.3957 25.122 14.6043 24.6339 14.1161L20.8839 10.3661Z" fill="#FF3B30"/>
</svg>
